<svg width="20" height="20" viewBox="0 0 20 20" fill="none" xmlns="http://www.w3.org/2000/svg">
<path fill-rule="evenodd" clip-rule="evenodd" d="M9.43923 11.0447L9.28551 7.1017L12.6882 4.95776L16.124 6.79907L16.2987 10.8484L12.8961 12.9922L9.43923 11.0447Z" fill="#081457"/>
<path fill-rule="evenodd" clip-rule="evenodd" d="M2.6884 10.2806L2.66762 4.61409L10.0607 -6.10352e-05L13.5966 2.11077C11.0467 3.76767 9.87482 4.46592 7.2897 6.07328L7.24108 7.58142L2.6884 10.2806Z" fill="#081457"/>
<path fill-rule="evenodd" clip-rule="evenodd" d="M3.03975 18.1796L0 13.3634L7.26578 9.1117L7.55748 12.225L10.2816 13.6357L3.03975 18.1796Z" fill="#081457"/>
<path fill-rule="evenodd" clip-rule="evenodd" d="M6.84429 17.3863L11.8719 19.9999L19.401 15.3939L18.9231 11.4458C16.3138 13.0066 15.3016 13.6633 12.6918 15.2234L11.329 14.5757L6.84429 17.3863Z" fill="#081457"/>
</svg>
