<svg width="22" height="22" viewBox="0 0 22 22" fill="none" xmlns="http://www.w3.org/2000/svg">
<path d="M21.8567 19.9339H20.4753C20.396 19.9339 20.332 19.9978 20.332 20.0768V20.1617H19.3668V19.7237C19.3668 19.6355 19.2957 19.5642 19.2079 19.5642H19.0931V17.8424H18.3993V19.5642H18.2845C18.1966 19.5642 18.1257 19.6355 18.1257 19.7237V20.1617H15.0595L15.0601 20.1032C15.0601 20.0461 15.0061 19.9293 14.9546 19.9293H14.8723L14.3411 19.9278V21.0729H14.6429C14.6523 21.0764 14.6621 21.0795 14.6725 21.0795H14.9546C15.0061 21.0795 15.0476 21.0331 15.0476 20.976L15.0506 20.7803H18.1257V21.2601C18.1257 21.3483 18.1966 21.4196 18.2845 21.4196H19.2079C19.2957 21.4196 19.3668 21.3483 19.3668 21.2601V20.7803H20.332V20.907C20.332 20.986 20.396 21.0499 20.4753 21.0499H21.8567C21.9359 21.0499 22 20.986 22 20.907V20.0768C22 19.9978 21.9359 19.9339 21.8567 19.9339Z" fill="#A4050E"/>
<path d="M2.61447 14.7697H0C0.689137 16.6912 1.97727 16.4377 1.97727 16.4377L2.61447 16.462V14.7697Z" fill="#A4050E"/>
<path d="M4.36547 15.7129C4.36547 15.9308 4.20194 16.1075 4.00006 16.1075C3.79847 16.1075 3.63487 15.9308 3.63487 15.7129C3.63487 15.4951 3.79847 15.3185 4.00006 15.3185C4.20194 15.3185 4.36547 15.4951 4.36547 15.7129ZM5.09708 0.611707V0H2.9034V17.5862H5.09708V12.9513H4.53846V12.5412H5.09708V11.2471H4.18107V10.8369H5.09708V9.54297H4.53846V9.13271H5.09708V7.8388H4.18107V7.42861H5.09708V6.13455H4.53846V5.72444H5.09708V4.43038H4.18107V4.02027H5.09708V2.72621H4.53846V2.31595H5.09708V1.0219H4.18107V0.611707H5.09708Z" fill="#A4050E"/>
<path d="M13.9056 14.8582C13.9159 14.8287 13.9265 14.8001 13.9364 14.7696H13.7465L13.8337 14.8582H13.9056Z" fill="#A4050E"/>
<path d="M10.3907 14.7697H5.38642V16.6456C6.07939 16.8969 6.34996 17.4115 7.23492 17.4115C8.73773 17.4115 8.31266 16.5444 9.9915 16.5109L12.0169 16.4376C12.0169 16.4376 12.0245 16.4386 12.0373 16.4397L10.3907 14.7697Z" fill="#A4050E"/>
<path d="M11.6868 12.1794C11.6868 12.5399 11.4584 12.8322 11.177 12.8322C10.8954 12.8322 10.6672 12.5399 10.6672 12.1794V4.82604C10.6672 4.46519 10.8954 4.17302 11.177 4.17302C11.4584 4.17302 11.6868 4.46519 11.6868 4.82604V12.1794ZM19.7432 2.82372H19.5438V2.32137C19.554 2.30035 19.5603 2.27658 19.5603 2.25109V0.155154C19.5603 0.070141 19.4957 0.0011634 19.416 0.0011634H13.3993C13.3581 -0.00338701 13.3173 0.00816978 13.2883 0.037928L10.0195 3.35749C9.98765 3.38999 9.97674 3.43622 9.9844 3.4828V13.8954C9.9844 13.9623 10.0149 14.0187 10.0571 14.0405L13.1918 17.2196C13.2017 17.2295 13.2131 17.2366 13.2251 17.2422C13.246 17.2544 13.2694 17.2618 13.2948 17.2618H17.8219V17.4307C17.8219 17.5165 17.888 17.5861 17.9696 17.5861H19.3668C19.4485 17.5861 19.5145 17.5165 19.5145 17.4307V14.638C19.5145 14.5521 19.4485 14.4826 19.3668 14.4826H17.9696C17.888 14.4826 17.8219 14.5521 17.8219 14.638V14.8581H14.2184L12.3748 12.9882V4.29126L14.232 2.40515H17.1868V2.82372H16.9708C16.8848 2.82372 16.8151 2.89017 16.8151 2.97193V3.42213C16.8151 3.50426 16.8848 3.57056 16.9708 3.57056H19.7432C19.8291 3.57056 19.899 3.50426 19.899 3.42213V2.97193C19.899 2.89017 19.8291 2.82372 19.7432 2.82372Z" fill="#A4050E"/>
<path d="M18.1206 12.6848H18.4094V14.2352H19.0535V12.6848H19.3425C19.4164 12.6848 19.4765 12.6283 19.4765 12.5586V12.1765C19.4765 12.1701 19.4754 12.1639 19.4745 12.1578V11.9921H17.9885V12.1578C17.9875 12.1639 17.9866 12.1701 17.9866 12.1765V12.5586C17.9866 12.6283 18.0465 12.6848 18.1206 12.6848Z" fill="#A4050E"/>
</svg>