<svg width="160" height="32" viewBox="0 0 160 32" fill="none" xmlns="http://www.w3.org/2000/svg">
<path fill-rule="evenodd" clip-rule="evenodd" d="M46.5818 7.11682C46.0699 6.56541 43.5234 6.62952 42.8195 6.6167C38.9549 6.59105 31.7376 6.80905 28.129 6.80905C27.9882 6.80905 27.4891 7.0527 27.5659 7.25788C25.0066 7.25788 23.6501 7.2707 20.5533 7.23223C18.877 7.21941 14.8844 7.42458 14.782 4.46235C14.7309 2.97483 16.0873 1.66683 17.6869 0.0767181C16.6632 -0.231046 15.6394 0.4486 14.6029 1.02566C14.1038 1.52577 13.7583 1.85918 13.336 2.28236C11.7748 4.56494 11.1606 6.87317 11.5317 9.1814C12.9393 8.91211 13.9887 10.8485 13.0033 11.7589L12.1203 11.7717C11.6981 11.7717 11.3653 12.2077 11.3781 12.7207L11.4037 14.7724C11.4165 15.2982 11.762 15.6444 12.1715 15.6444H16.6248C17.0343 15.6316 17.367 15.2084 17.3542 14.6827L17.3286 12.6309C17.3286 12.118 16.9831 11.6948 16.5608 11.7076H16.0105C15.0252 8.95058 18.186 9.30964 19.9775 9.33528C23.3302 9.36093 24.4563 9.34811 27.4124 9.34811C27.5787 9.55328 27.5019 9.93799 27.9626 10.1303C28.2569 10.2458 46.0315 10.2073 46.3514 10.1303C46.6713 10.0534 46.5818 9.89952 46.6969 9.78411C46.8505 9.16858 47.196 7.79646 46.5818 7.11682ZM16.5992 12.0923V14.2723C16.5992 14.2723 16.5352 12.8489 15.9593 12.7592C15.3707 12.6694 15.7034 12.0923 15.7034 12.0923H16.5992ZM46.3898 8.0914C46.3898 8.0914 45.8652 7.91187 45.4429 7.64258C44.5343 7.0527 28.4105 7.57846 28.4105 7.57846L28.8712 7.19376C28.8712 7.19376 45.3021 6.91164 45.8652 7.19376C46.4282 7.47588 46.3898 8.0914 46.3898 8.0914Z" fill="#201434"/>
<path fill-rule="evenodd" clip-rule="evenodd" d="M7.36136 27.0937C7.67275 26.6476 7.82222 26.1147 7.82222 25.4951C7.82222 25.0862 7.71012 24.7144 7.48592 24.4046C7.24926 24.0825 6.91295 23.7974 6.46454 23.562C6.01614 23.3265 5.43072 23.1159 4.72074 22.9424C4.09795 22.7937 3.63708 22.6698 3.28832 22.5706C2.93956 22.4715 2.66553 22.3352 2.45379 22.1741C2.22958 22.013 2.12994 21.8023 2.12994 21.5421C2.12994 21.2571 2.26695 21.0092 2.56589 20.8234C2.85237 20.6499 3.21359 20.5507 3.63708 20.5507C4.06058 20.5507 4.38443 20.6251 4.63355 20.7614C4.88266 20.8977 5.09441 21.0836 5.26879 21.319C5.48054 21.5793 5.66737 21.7899 5.8293 21.9139C5.99122 22.0378 6.17806 22.0997 6.40227 22.0997C6.71366 22.0997 6.95032 22.0254 7.1247 21.8643C7.28662 21.7032 7.37381 21.5049 7.37381 21.2571C7.37381 21.034 7.28662 20.7862 7.13716 20.5507C6.97523 20.3029 6.72611 20.0798 6.41472 19.8692C6.10333 19.6709 5.70474 19.5098 5.24388 19.3859C4.77056 19.262 4.23496 19.2 3.63708 19.2C2.88974 19.2 2.24204 19.3239 1.70644 19.5594C1.1833 19.7948 0.772258 20.1294 0.510687 20.5259C0.23666 20.9225 0.0996461 21.3562 0.0996461 21.8023C0.0996461 22.298 0.249115 22.7317 0.535598 23.0663C0.834536 23.4133 1.22067 23.6983 1.7189 23.909C2.21713 24.1196 2.86483 24.3303 3.64954 24.5286C4.35952 24.7021 4.88266 24.8755 5.19406 25.0614C5.51791 25.2597 5.67983 25.5695 5.67983 26.0032C5.67983 26.2882 5.51791 26.5361 5.20651 26.7467C4.90757 26.9574 4.50899 27.0689 4.03567 27.0689C3.4627 27.0689 2.98938 26.9574 2.65308 26.7591C2.31677 26.5485 2.03029 26.2387 1.78117 25.8173C1.66907 25.6067 1.54452 25.4456 1.41996 25.334C1.30786 25.2225 1.13347 25.173 0.896815 25.173C0.635244 25.173 0.423496 25.2597 0.249115 25.4208C0.0871904 25.5943 0 25.7926 0 26.028C0 26.3998 0.137013 26.7715 0.41104 27.1433C0.685067 27.515 1.12102 27.8248 1.70644 28.0727C2.29186 28.3205 3.00184 28.4444 3.81147 28.4444C4.67091 28.4444 5.41826 28.3329 6.01614 28.0975C6.60156 27.8744 7.06242 27.5398 7.36136 27.0937Z" fill="#201434"/>
<path fill-rule="evenodd" clip-rule="evenodd" d="M24.9142 15.6444C24.1004 15.6444 23.46 15.7445 23.0064 15.9322C22.5528 16.1199 22.2192 16.4327 22.0324 16.8456C21.8457 17.2585 21.7389 17.8341 21.7389 18.5473V19.3105H21.0985C20.298 19.3105 19.9111 19.5608 19.9111 20.0863C19.9111 20.324 20.0045 20.4992 20.1913 20.6493C20.3781 20.7995 20.6449 20.8746 21.0051 20.8746H21.7389V27.0806C21.7389 27.5311 21.859 27.8689 22.0725 28.0941C22.2993 28.3318 22.5794 28.4444 22.913 28.4444C23.2599 28.4444 23.5534 28.3193 23.7669 28.0941C23.9937 27.8689 24.1004 27.5311 24.1004 27.0806V20.8746H24.7675C25.2078 20.8746 25.5413 20.8245 25.7814 20.7244C26.0216 20.6243 26.1283 20.4116 26.1283 20.0487C26.1283 19.5483 25.6881 19.3105 24.7675 19.3105H24.1004V18.6974C24.1004 18.2345 24.1671 17.8591 24.3005 17.6089C24.4339 17.3461 24.7408 17.2085 25.2211 17.2085C25.3812 17.2085 25.5813 17.221 25.8215 17.2585C26.0616 17.2961 26.2217 17.3086 26.3151 17.3086C26.5019 17.3086 26.662 17.246 26.8088 17.0959C26.9422 16.9582 27.0222 16.7831 27.0222 16.5829C27.0222 15.9573 26.3018 15.6444 24.9142 15.6444Z" fill="#201434"/>
<path fill-rule="evenodd" clip-rule="evenodd" d="M32.7111 28.028C32.7111 27.823 32.6461 27.6436 32.503 27.5027C32.3599 27.3489 32.1908 27.2849 32.0087 27.2849C31.8786 27.2849 31.6965 27.3105 31.4623 27.3618C31.2152 27.413 31.0201 27.4386 30.877 27.4386C30.5908 27.4386 30.3957 27.3618 30.2656 27.2208C30.1485 27.0927 30.0705 26.9133 30.0444 26.7083C30.0184 26.5033 29.9924 26.2086 29.9924 25.837V21.4038H30.5127C30.981 21.4038 31.3453 21.3397 31.5794 21.2116C31.8266 21.0963 31.9436 20.8913 31.9436 20.5966C31.9436 20.366 31.8526 20.1738 31.6835 20.0328C31.5144 19.8791 31.2672 19.8022 30.942 19.8022H29.9924V18.1237C29.9924 17.7265 29.9794 17.419 29.9274 17.2012C29.8883 16.9962 29.7973 16.8296 29.6412 16.6759C29.407 16.4709 29.1339 16.3556 28.8477 16.3556C28.6396 16.3556 28.4444 16.4068 28.2753 16.4965C28.1192 16.599 27.9892 16.7271 27.8981 16.8809C27.807 17.0218 27.755 17.2012 27.729 17.419C27.716 17.6368 27.703 17.9315 27.703 18.3159V19.8022H27.3778C27.0266 19.8022 26.7534 19.8791 26.5713 20.0328C26.4022 20.1738 26.3111 20.366 26.3111 20.5966C26.3111 20.8272 26.3892 21.0194 26.5713 21.1732C26.7404 21.3269 26.9875 21.4038 27.3257 21.4038H27.703V26.0292C27.703 26.7596 27.755 27.3489 27.8851 27.7846C28.0022 28.2074 28.2493 28.5534 28.6266 28.784C29.0038 29.0274 29.5631 29.1556 30.3046 29.1556C31.0851 29.1556 31.6965 29.0531 32.1127 28.8609C32.516 28.6559 32.7111 28.3868 32.7111 28.028Z" fill="#201434"/>
<path fill-rule="evenodd" clip-rule="evenodd" d="M44.0171 26.6724L45.9546 21.1579C46.133 20.687 46.2222 20.3401 46.2222 20.1046C46.2222 19.8692 46.1203 19.6461 45.9291 19.4726C45.7379 19.2867 45.4957 19.2 45.228 19.2C44.9603 19.2 44.7564 19.262 44.6162 19.3735C44.476 19.4974 44.374 19.6337 44.3103 19.7948C44.2465 19.9559 44.1701 20.2285 44.0681 20.5879L42.4493 25.9289L40.9835 20.9597C40.8433 20.4764 40.7286 20.1418 40.6521 19.9559C40.5756 19.77 40.4354 19.5965 40.2442 19.4354C40.053 19.2744 39.7853 19.2 39.4539 19.2C39.1225 19.2 38.8548 19.2744 38.6764 19.4354C38.4852 19.5965 38.345 19.7576 38.2813 19.9311C38.2048 20.117 38.1028 20.464 37.9499 20.9597L36.484 25.9289L34.8907 20.5879C34.7378 20.0798 34.5848 19.7081 34.4446 19.4974C34.3299 19.2991 34.075 19.2 33.7053 19.2C33.4249 19.2 33.1827 19.2991 32.9915 19.485C32.8003 19.6709 32.7111 19.8692 32.7111 20.1046C32.7111 20.2905 32.8003 20.6499 32.9915 21.1579L34.9162 26.6724C34.9672 26.8211 35.0309 27.0194 35.1329 27.2672C35.2221 27.515 35.3241 27.7257 35.4388 27.8992C35.5535 28.0851 35.7065 28.209 35.8722 28.3081C36.0507 28.3949 36.2673 28.4444 36.5095 28.4444C36.9939 28.4444 37.338 28.2957 37.5292 27.9983C37.7332 27.6885 37.9116 27.2176 38.0901 26.598L39.4539 21.9262L40.8688 26.598C40.9835 27.007 41.0855 27.3292 41.1874 27.577C41.2766 27.8248 41.4296 28.0355 41.6208 28.1966C41.812 28.3701 42.0924 28.4444 42.4238 28.4444C42.7552 28.4444 43.0229 28.3701 43.2141 28.2214C43.4053 28.0603 43.5455 27.8868 43.6347 27.6761C43.7239 27.4779 43.8514 27.1433 44.0171 26.6724Z" fill="#201434"/>
<path fill-rule="evenodd" clip-rule="evenodd" d="M56.6657 26.6771C56.5081 26.2075 56.4293 25.7378 56.4293 25.3053C56.4424 24.848 56.4424 24.4278 56.4424 24.057C56.4556 23.6863 56.4556 23.2166 56.4556 22.6852C56.4556 21.8448 56.3242 21.1651 56.0747 20.6583C55.8253 20.1516 55.405 19.7809 54.8141 19.546C54.2101 19.3236 53.3566 19.2 52.3061 19.2C51.3606 19.2 50.5465 19.3236 49.9162 19.5708C49.2859 19.8056 48.8263 20.1146 48.5242 20.4853C48.2354 20.8561 48.0778 21.2392 48.0778 21.6347C48.0778 21.8695 48.1697 22.0673 48.3667 22.2279C48.5505 22.3762 48.7737 22.4627 49.0364 22.4627C49.3121 22.4627 49.496 22.4133 49.5747 22.3268C49.6667 22.2156 49.8242 22.0055 50.0475 21.6841C50.2707 21.3504 50.5596 21.1033 50.8747 20.9302C51.1899 20.7696 51.6758 20.6831 52.3061 20.6831C53.0414 20.6831 53.5404 20.8314 53.7768 21.128C54.0131 21.4246 54.1444 21.8819 54.1707 22.4998L54.1838 22.5369L54.1313 22.5493C53.6323 22.6852 53.1596 22.8088 52.7 22.9077C52.2667 23.0065 51.7414 23.1178 51.1242 23.2414C50.4808 23.3649 50.1263 23.4267 49.9687 23.4638C49.2465 23.6121 48.6818 23.9087 48.2616 24.3413C47.8545 24.7739 47.6444 25.2929 47.6444 25.9109C47.6444 26.3558 47.7758 26.7884 48.0253 27.1715C48.2747 27.567 48.6293 27.8759 49.0889 28.0984C49.5485 28.3209 50.1 28.4444 50.7172 28.4444C51.3869 28.4444 52.004 28.3332 52.5424 28.1231C53.0939 27.9007 53.6586 27.5793 54.2364 27.1591L54.2889 27.122L54.3283 27.1715C54.604 27.5917 54.8535 27.9007 55.103 28.1231C55.3263 28.3332 55.5626 28.4444 55.799 28.4444C56.0747 28.4444 56.3374 28.3456 56.5606 28.1602C56.7838 27.9748 56.8889 27.7894 56.8889 27.567C56.8889 27.431 56.8101 27.1344 56.6657 26.6771ZM54.1707 24.2053C54.1707 25.0087 54.0657 25.6019 53.8424 25.948C53.6455 26.2693 53.3303 26.5412 52.9101 26.7389C52.503 26.949 52.0434 27.0479 51.5576 27.0479C51.0848 27.0479 50.704 26.9243 50.4152 26.6648C50.1263 26.4052 49.9687 26.0963 49.9687 25.7379C49.9687 25.3794 50.1 25.1075 50.3495 24.9098C50.599 24.7121 50.8616 24.5885 51.1242 24.5143C51.3869 24.4525 51.8596 24.3537 52.5424 24.2177C53.2253 24.0818 53.7505 23.9458 54.0919 23.8222L54.1838 23.7975V24.2053H54.1707Z" fill="#201434"/>
<path fill-rule="evenodd" clip-rule="evenodd" d="M63.3357 19.5594C62.8759 19.3239 62.3904 19.2 61.905 19.2C61.4196 19.2 61.0363 19.3239 60.7553 19.547C60.4615 19.7824 60.1677 20.1418 59.8866 20.6003L59.7844 20.7738L59.7717 20.5755C59.7589 20.117 59.6695 19.77 59.5034 19.5346C59.3373 19.3115 59.0691 19.2 58.6986 19.2C57.9577 19.2 57.6 19.6833 57.6 20.6994V27.1061C57.6 27.5522 57.7022 27.8868 57.9194 28.1099C58.1238 28.3329 58.392 28.4444 58.7114 28.4444C59.0435 28.4444 59.3246 28.3329 59.5289 28.1099C59.7461 27.8992 59.8611 27.5522 59.8611 27.1061V25.1853C59.8611 24.4914 59.8739 23.8966 59.925 23.4257C59.9761 22.9424 60.0527 22.5211 60.1804 22.1617C60.3082 21.8023 60.487 21.5297 60.717 21.3438C61.113 21.034 61.6878 20.9721 62.5054 21.2323C62.9142 21.3562 63.0547 21.381 63.1186 21.381C63.3357 21.381 63.5401 21.2943 63.719 21.1208C63.9106 20.9473 64 20.7366 64 20.464C64 20.0922 63.7828 19.7948 63.3357 19.5594Z" fill="#201434"/>
<path fill-rule="evenodd" clip-rule="evenodd" d="M72.166 26.776C72.3252 26.5165 72.3987 26.2816 72.3987 26.0839C72.3987 25.8614 72.3374 25.7008 72.2028 25.5772C72.0681 25.466 71.8967 25.4042 71.6763 25.4042C71.4682 25.4042 71.3213 25.4412 71.2111 25.5401C70.9295 25.812 70.6969 26.0221 70.5255 26.1704C70.3418 26.3311 70.146 26.4794 69.9378 26.6277C69.7175 26.7636 69.4971 26.8625 69.2645 26.9367C69.0319 26.9985 68.7747 27.0355 68.5054 27.0355C68.0891 27.0355 67.6974 26.9243 67.3546 26.7142C67.0118 26.5165 66.7424 26.2075 66.5343 25.7996C66.3262 25.3918 66.216 24.9222 66.216 24.3907V24.3413H70.7214C71.2968 24.3413 71.762 24.2548 72.0803 24.0818C72.3864 23.9211 72.5333 23.5627 72.5333 23.0189C72.5333 22.4009 72.3742 21.7954 72.0681 21.2021C71.762 20.6213 71.2846 20.1269 70.6602 19.7561C70.0358 19.3854 69.2767 19.2 68.4075 19.2C67.7341 19.2 67.1097 19.3112 66.5588 19.5337C66.0079 19.7438 65.5304 20.0651 65.1631 20.473C64.7836 20.8808 64.4897 21.3752 64.2938 21.9437C64.0979 22.5122 64 23.1425 64 23.8099C64 25.2311 64.404 26.3682 65.1998 27.1962C65.9956 28.0242 67.1342 28.4444 68.5666 28.4444C69.2033 28.4444 69.7664 28.3579 70.2439 28.1849C70.7336 28.0242 71.1376 27.8141 71.456 27.567C71.7743 27.3198 72.0191 27.0479 72.166 26.776ZM66.216 23.0807C66.2894 22.3021 66.522 21.6965 66.8893 21.301C67.2566 20.8932 67.7463 20.6831 68.3218 20.6831C68.9339 20.6831 69.4359 20.8932 69.8032 21.2887C70.1704 21.6841 70.3908 22.2897 70.452 23.0807V23.1425H66.2037L66.216 23.0807Z" fill="#201434"/>
<path fill-rule="evenodd" clip-rule="evenodd" d="M87.2204 26.5609C87.3805 26.2511 87.4667 25.9413 87.4667 25.6686C87.4667 25.4456 87.3805 25.2225 87.2081 25.0243C87.0357 24.826 86.814 24.7268 86.5555 24.7268C86.3338 24.7268 86.1491 24.7888 86.0014 24.9251C85.8413 25.0738 85.6935 25.2721 85.5581 25.5199C85.2995 25.966 85.004 26.3006 84.6715 26.5237C84.339 26.7343 83.9327 26.8459 83.4647 26.8459C83.1077 26.8459 82.7875 26.7839 82.5043 26.6476C82.2088 26.5113 81.9502 26.313 81.7532 26.0404C81.5438 25.7926 81.3837 25.4704 81.2729 25.0986C81.1744 24.7392 81.1128 24.3303 81.1128 23.8966C81.1128 22.9548 81.3345 22.2113 81.7532 21.6784C82.1718 21.1332 82.7382 20.8605 83.4278 20.8605C83.908 20.8605 84.3021 20.9721 84.6222 21.1827C84.9301 21.4058 85.2256 21.728 85.5088 22.1617C85.6566 22.3724 85.8043 22.5335 85.9275 22.6202C86.0383 22.7193 86.1861 22.7565 86.3584 22.7565C86.6293 22.7565 86.8756 22.6698 87.0603 22.4963C87.2573 22.3104 87.3558 22.0997 87.3558 21.8271C87.3558 21.5793 87.2573 21.2943 87.0849 20.9845C86.9126 20.687 86.654 20.3896 86.3092 20.117C85.9767 19.8568 85.5581 19.6337 85.0778 19.4602C84.5853 19.2867 84.0435 19.2 83.4647 19.2C82.5166 19.2 81.7039 19.3983 81.0266 19.7824C80.3494 20.179 79.8322 20.7366 79.4751 21.443C79.118 22.1617 78.9333 22.992 78.9333 23.9214C78.9333 25.2969 79.3274 26.3998 80.1031 27.2176C80.8912 28.0355 81.9871 28.4444 83.3785 28.4444C84.0312 28.4444 84.6345 28.3577 85.1517 28.1842C85.6689 27.9983 86.1122 27.7629 86.457 27.4779C86.8017 27.1929 87.0603 26.8831 87.2204 26.5609Z" fill="#201434"/>
<path fill-rule="evenodd" clip-rule="evenodd" d="M98.6212 26.6771C98.4636 26.2075 98.3849 25.7378 98.3849 25.3053C98.398 24.848 98.398 24.4278 98.398 24.057C98.4111 23.6863 98.4111 23.2166 98.4111 22.6852C98.4111 21.8448 98.2798 21.1651 98.0303 20.6583C97.7808 20.1516 97.3606 19.7809 96.7697 19.546C96.1657 19.3236 95.3253 19.2 94.2616 19.2C93.3162 19.2 92.5152 19.3236 91.8717 19.5708C91.2414 19.8056 90.7818 20.1146 90.4798 20.4853C90.1909 20.8561 90.0333 21.2392 90.0333 21.6347C90.0333 21.8695 90.1253 22.0673 90.3222 22.2279C90.5061 22.3886 90.7293 22.4627 90.9919 22.4627C91.2677 22.4627 91.4515 22.4133 91.5303 22.3268C91.6222 22.2156 91.7798 22.0055 92.003 21.6841C92.2394 21.3504 92.5152 21.1033 92.8303 20.9302C93.1455 20.7696 93.6313 20.6831 94.2616 20.6831C94.997 20.6831 95.496 20.8314 95.7323 21.128C95.9687 21.4246 96.1 21.8819 96.1394 22.4998V22.5369L96.0869 22.5493C95.5879 22.6976 95.102 22.8088 94.6556 22.9077C94.2222 23.0065 93.697 23.1178 93.0798 23.2414C92.4364 23.3649 92.0818 23.4267 91.9374 23.4638C91.202 23.6121 90.6374 23.9087 90.2172 24.3413C89.8101 24.7739 89.6 25.2929 89.6 25.9109C89.6 26.3558 89.7313 26.7884 89.9808 27.1715C90.2303 27.5546 90.5849 27.8759 91.0444 28.0984C91.504 28.3209 92.0556 28.4444 92.6727 28.4444C93.3424 28.4444 93.9596 28.3332 94.498 28.1231C95.0495 27.9007 95.6141 27.5793 96.1919 27.1591L96.2444 27.122L96.2838 27.1715C96.5596 27.5917 96.8091 27.9007 97.0586 28.1231C97.2818 28.3332 97.5182 28.4444 97.7545 28.4444C98.0303 28.4444 98.2929 28.3456 98.5162 28.1602C98.7394 27.9748 98.8444 27.7894 98.8444 27.567C98.8444 27.431 98.7657 27.1344 98.6212 26.6771ZM96.1394 24.2053C96.1394 25.0087 96.0212 25.6019 95.798 25.948C95.601 26.2693 95.2859 26.5412 94.8657 26.7389C94.4586 26.949 93.999 27.0479 93.5131 27.0479C93.0404 27.0479 92.6596 26.9243 92.3707 26.6648C92.0818 26.4176 91.9242 26.0963 91.9242 25.7379C91.9242 25.3794 92.0555 25.1075 92.305 24.9098C92.5545 24.7121 92.8172 24.5885 93.0798 24.5143C93.3424 24.4525 93.8152 24.3537 94.498 24.2177C95.1808 24.0818 95.7061 23.9458 96.0475 23.8222L96.1394 23.7975V24.2053Z" fill="#201434"/>
<path fill-rule="evenodd" clip-rule="evenodd" d="M105.291 19.5594C104.831 19.3239 104.346 19.2 103.861 19.2C103.375 19.2 102.992 19.3239 102.698 19.547C102.417 19.7824 102.123 20.1418 101.842 20.6003L101.74 20.7738V20.5755C101.714 20.117 101.625 19.77 101.459 19.5346C101.293 19.3115 101.025 19.2 100.654 19.2C99.9132 19.2 99.5556 19.6833 99.5556 20.6994V27.1061C99.5556 27.5522 99.6578 27.8868 99.8749 28.1099C100.079 28.3329 100.348 28.4444 100.667 28.4444C100.999 28.4444 101.28 28.3329 101.484 28.1099C101.702 27.8992 101.817 27.5522 101.817 27.1061V25.1853C101.817 24.4914 101.842 23.8966 101.881 23.4257C101.932 22.9424 102.008 22.5211 102.136 22.1617C102.264 21.8023 102.443 21.5297 102.673 21.3438C103.069 21.034 103.643 20.9721 104.461 21.2323C104.87 21.3562 105.01 21.381 105.074 21.381C105.279 21.381 105.496 21.2943 105.675 21.1208C105.866 20.9473 105.956 20.7366 105.956 20.464C105.956 20.0922 105.738 19.7948 105.291 19.5594Z" fill="#201434"/>
<path fill-rule="evenodd" clip-rule="evenodd" d="M115.475 27.3033C115.823 26.9025 116.106 26.4016 116.313 25.8129C116.519 25.2243 116.622 24.5605 116.622 23.8591C116.622 22.8947 116.442 22.0556 116.094 21.3542C115.733 20.6654 115.243 20.1268 114.637 19.7636C114.031 19.4004 113.36 19.2125 112.638 19.2125C112.032 19.2125 111.491 19.3378 111.014 19.5883C110.537 19.8387 110.072 20.2395 109.634 20.7656L109.518 20.8908V20.4524C109.518 20.0391 109.415 19.726 109.222 19.5131C109.015 19.3127 108.757 19.2 108.435 19.2C108.1 19.2 107.842 19.3002 107.661 19.5131C107.468 19.7135 107.378 20.0391 107.378 20.465V30.5096C107.378 30.998 107.442 31.3738 107.584 31.6368C107.726 31.8748 107.997 32 108.435 32C109.17 32 109.518 31.5115 109.518 30.5221V26.865L109.634 26.9902C110.047 27.5037 110.485 27.892 110.936 28.155C111.4 28.418 111.968 28.5432 112.638 28.5432C113.193 28.5432 113.721 28.4431 114.198 28.2176C114.688 28.0047 115.114 27.7041 115.475 27.3033ZM114.018 25.4873C113.812 25.9382 113.528 26.2888 113.193 26.5143C112.845 26.7523 112.458 26.865 112.045 26.865C111.362 26.865 110.782 26.602 110.33 26.0759C109.866 25.5499 109.634 24.811 109.634 23.8716C109.634 22.8822 109.866 22.1182 110.33 21.6047C110.794 21.0912 111.375 20.8282 112.045 20.8282C112.471 20.8282 112.87 20.9409 113.218 21.1914C113.567 21.4294 113.85 21.78 114.044 22.2309C114.237 22.6693 114.34 23.2078 114.34 23.8341C114.34 24.4728 114.224 25.0239 114.018 25.4873Z" fill="#201434"/>
<path fill-rule="evenodd" clip-rule="evenodd" d="M125.499 26.776C125.659 26.5165 125.732 26.2816 125.732 26.0839C125.732 25.8614 125.671 25.7008 125.536 25.5772C125.401 25.4536 125.23 25.4042 125.01 25.4042C124.802 25.4042 124.655 25.4412 124.544 25.5401C124.263 25.812 124.03 26.0221 123.859 26.1704C123.675 26.3311 123.479 26.4794 123.271 26.6277C123.051 26.7636 122.83 26.8625 122.598 26.9367C122.365 26.9985 122.108 27.0355 121.839 27.0355C121.422 27.0355 121.031 26.9243 120.688 26.7142C120.345 26.5165 120.076 26.2075 119.868 25.7996C119.659 25.3918 119.549 24.9222 119.549 24.3907V24.3413H124.055C124.63 24.3413 125.095 24.2548 125.414 24.0818C125.72 23.9211 125.867 23.5627 125.867 23.0189C125.867 22.4009 125.708 21.7954 125.401 21.2021C125.095 20.6213 124.618 20.1269 123.993 19.7561C123.369 19.3854 122.61 19.2 121.741 19.2C121.055 19.2 120.443 19.3112 119.892 19.5337C119.341 19.7438 118.876 20.0651 118.496 20.473C118.117 20.8808 117.823 21.3752 117.627 21.9437C117.431 22.5122 117.333 23.1425 117.333 23.8099C117.333 25.2311 117.737 26.3682 118.533 27.1962C119.329 28.0242 120.468 28.4444 121.9 28.4444C122.537 28.4444 123.1 28.3579 123.577 28.1849C124.067 28.0242 124.471 27.8141 124.789 27.567C125.108 27.3198 125.34 27.0479 125.499 26.776ZM119.549 23.0807C119.623 22.3021 119.855 21.6965 120.223 21.301C120.59 20.8932 121.08 20.6831 121.655 20.6831C122.267 20.6831 122.769 20.8932 123.136 21.2887C123.504 21.6841 123.724 22.2897 123.785 23.0807V23.1425H119.537L119.549 23.0807Z" fill="#201434"/>
<path fill-rule="evenodd" clip-rule="evenodd" d="M135.822 22.8185C135.822 22.3228 135.796 21.9015 135.757 21.5793C135.705 21.2571 135.6 20.9597 135.443 20.687C135.208 20.2161 134.829 19.8444 134.346 19.5842C133.849 19.3363 133.287 19.2 132.66 19.2C132.006 19.2 131.431 19.3239 130.935 19.5718C130.438 19.8196 129.968 20.2038 129.55 20.7242L129.445 20.8605V20.4144C129.445 20.1542 129.393 19.9311 129.301 19.7452C129.197 19.5594 129.066 19.4231 128.909 19.3363C128.739 19.2496 128.556 19.2 128.36 19.2C128.034 19.2 127.759 19.2991 127.576 19.5098C127.38 19.7081 127.289 20.0303 127.289 20.4516V27.1061C127.289 27.5398 127.393 27.8744 127.616 28.1099C127.825 28.3329 128.099 28.4444 128.426 28.4444C128.779 28.4444 129.053 28.3329 129.275 28.1099C129.484 27.8992 129.602 27.5522 129.602 27.1061V24.2188C129.602 23.2646 129.654 22.6326 129.772 22.2856C129.942 21.8395 130.216 21.4925 130.582 21.2447C130.948 20.9968 131.353 20.8729 131.797 20.8729C132.49 20.8729 132.947 21.0836 133.183 21.5049C133.405 21.9139 133.522 22.5087 133.522 23.2646V27.1061C133.522 27.5398 133.627 27.8744 133.849 28.1099C134.058 28.3329 134.346 28.4444 134.685 28.4444C135.025 28.4444 135.286 28.3329 135.509 28.1099C135.718 27.8868 135.822 27.5522 135.822 27.1061V22.8185Z" fill="#201434"/>
<path fill-rule="evenodd" clip-rule="evenodd" d="M143.644 28.028C143.644 27.8102 143.579 27.6436 143.436 27.5027C143.293 27.3489 143.124 27.2849 142.955 27.2849C142.812 27.2849 142.63 27.3105 142.396 27.3618C142.149 27.413 141.953 27.4386 141.81 27.4386C141.524 27.4386 141.329 27.3618 141.199 27.2208C141.082 27.0927 141.004 26.9133 140.978 26.7083C140.952 26.5033 140.926 26.2086 140.926 25.837V21.4038H141.446C141.914 21.4038 142.279 21.3397 142.526 21.2116C142.76 21.0963 142.877 20.8913 142.877 20.5966C142.877 20.366 142.786 20.1738 142.617 20.0328C142.448 19.8791 142.201 19.8022 141.875 19.8022H140.926V18.1237C140.926 17.7265 140.913 17.419 140.861 17.2012C140.822 16.9962 140.731 16.8296 140.575 16.6759C140.34 16.4709 140.067 16.3556 139.781 16.3556C139.573 16.3556 139.378 16.4068 139.222 16.4965C139.053 16.599 138.923 16.7271 138.831 16.8809C138.74 17.0218 138.688 17.2012 138.662 17.419C138.649 17.6368 138.636 17.9315 138.636 18.3159V19.8022H138.311C137.96 19.8022 137.687 19.8791 137.505 20.0328C137.336 20.1738 137.244 20.366 137.244 20.5966C137.244 20.8272 137.322 21.0194 137.505 21.1732C137.674 21.3269 137.921 21.4038 138.259 21.4038H138.636V26.0292C138.636 26.7596 138.688 27.3489 138.818 27.7846C138.936 28.2074 139.183 28.5534 139.56 28.784C139.937 29.0274 140.496 29.1556 141.238 29.1556C142.018 29.1556 142.63 29.0531 143.046 28.8609C143.449 28.6559 143.644 28.3868 143.644 28.028Z" fill="#201434"/>
<path fill-rule="evenodd" clip-rule="evenodd" d="M150.091 19.5594C149.631 19.3239 149.146 19.2 148.661 19.2C148.175 19.2 147.792 19.3239 147.498 19.547C147.217 19.7824 146.923 20.1418 146.642 20.6003L146.54 20.7738L146.527 20.5755C146.514 20.117 146.425 19.77 146.259 19.5346C146.093 19.3115 145.825 19.2 145.454 19.2C144.713 19.2 144.356 19.6833 144.356 20.6994V27.1061C144.356 27.5522 144.458 27.8868 144.675 28.1099C144.879 28.3329 145.148 28.4444 145.467 28.4444C145.799 28.4444 146.08 28.3329 146.285 28.1099C146.502 27.8992 146.617 27.5522 146.617 27.1061V25.1853C146.617 24.4914 146.629 23.8966 146.681 23.4257C146.732 22.9424 146.808 22.5211 146.936 22.1617C147.064 21.8023 147.243 21.5297 147.473 21.3438C147.869 21.034 148.443 20.9721 149.261 21.2323C149.67 21.3562 149.81 21.381 149.874 21.381C150.079 21.381 150.296 21.2943 150.475 21.1208C150.666 20.9473 150.756 20.7366 150.756 20.464C150.756 20.0922 150.538 19.7948 150.091 19.5594Z" fill="#201434"/>
<path fill-rule="evenodd" clip-rule="evenodd" d="M155.268 30.7851C155.514 30.3969 155.76 29.8458 156.018 29.1569L158.994 21.2164C159.068 21.0035 159.129 20.8031 159.178 20.6153C159.227 20.4149 159.264 20.2646 159.289 20.1519C159.289 20.0016 159.252 19.8387 159.166 19.6885C159.08 19.5382 158.969 19.4254 158.822 19.3378C158.674 19.2501 158.514 19.2 158.342 19.2C158.121 19.2 157.936 19.2376 157.826 19.3252C157.703 19.4004 157.58 19.5507 157.469 19.7887C157.358 20.0266 157.223 20.3773 157.076 20.8031L155.194 26.2888L153.202 20.4023C153.079 20.0016 152.932 19.701 152.772 19.5006C152.612 19.3002 152.391 19.2 152.071 19.2C151.887 19.2 151.715 19.2501 151.555 19.3503C151.383 19.438 151.247 19.5757 151.161 19.7386C151.063 19.9014 151.014 20.0767 151.014 20.2646C151.014 20.4399 151.1 20.7405 151.272 21.1413L154.088 28.3804L153.879 28.919C153.719 29.2947 153.571 29.5953 153.448 29.7957C153.325 29.9961 153.19 30.1464 153.03 30.2215C152.87 30.3092 152.649 30.3468 152.379 30.3468C152.268 30.3468 152.145 30.3342 151.997 30.2967C151.874 30.2591 151.764 30.2466 151.641 30.2466C151.346 30.2466 151.124 30.3217 150.977 30.447C150.829 30.5847 150.756 30.7726 150.756 31.0231C150.756 31.3988 150.903 31.6493 151.223 31.7871C151.555 31.9249 152.047 32 152.711 32C153.387 32 153.928 31.8998 154.321 31.6869C154.715 31.474 155.035 31.1734 155.268 30.7851Z" fill="#201434"/>
<path fill-rule="evenodd" clip-rule="evenodd" d="M12.8515 17.0667C12.8515 17.0667 12.7356 17.4068 12.8515 17.5161C12.9546 17.6254 13.5085 17.6618 13.5085 17.6618V24.148L14.6035 24.8889L15.5311 24.0629V17.7226L15.8145 17.6618C16.2525 17.7712 16.3556 17.4068 16.3556 17.4068V17.0667H12.8515ZM15.1446 23.9901L14.8354 24.1115V17.759L15.1446 17.6618V23.9901ZM15.9691 17.3825C15.647 17.4068 13.5601 17.176 13.5601 17.176H15.9691C15.9691 17.176 16.304 17.3703 15.9691 17.3825Z" fill="#201434"/>
<path fill-rule="evenodd" clip-rule="evenodd" d="M17.5118 20.2044L17.4869 20.1916C17.3132 20.0131 17.0773 19.9111 16.829 19.9111C16.2953 19.9111 15.8732 20.3574 15.8732 20.8929C15.8732 21.148 15.9601 21.3902 16.1463 21.5815L16.1587 21.5942C16.1835 21.6325 16.2208 21.658 16.258 21.6835C16.9159 22.2828 17.3007 23.1499 17.3007 24.0424C17.3007 25.7893 15.9229 27.1919 14.2222 27.1919C12.534 27.1919 11.1561 25.7893 11.1561 24.0424C11.1561 23.1626 11.5161 22.3083 12.1616 21.7217C12.4347 21.5305 12.5837 21.2245 12.5837 20.8929C12.5837 20.3574 12.1616 19.9111 11.6278 19.9111C11.3796 19.9111 11.1437 20.0131 10.9575 20.1916L10.9451 20.2171L10.9327 20.2044C9.8527 21.1735 9.24444 22.5761 9.24444 24.0424C9.24444 26.8604 11.4789 29.1556 14.2222 29.1556C16.9656 29.1556 19.2 26.8604 19.2 24.0424C19.2 22.5761 18.5917 21.1735 17.5118 20.2044Z" fill="#201434"/>
</svg>
