<svg width="97" height="32" viewBox="0 0 97 32" fill="none" xmlns="http://www.w3.org/2000/svg">
<path fill-rule="evenodd" clip-rule="evenodd" d="M0 0.00413004V10.0367H4.20284V0.00413004H0ZM8.2701 0.00413004V12.7482H12.4729V0.00413004H8.2701ZM16.4046 0.00413004V15.4597H20.6075V0.00413004H16.4046ZM24.6747 0.00413004V18.3068H28.8776V0.00413004H24.6747ZM32.8093 0.00413004V21.0183H37.0121V0.00413004H32.8093ZM41.0794 0.00413004V23.7298H45.2822V0.00413004H41.0794ZM49.3495 0.00413004V26.4413H53.5523V0.00413004H49.3495ZM57.484 0.00413004V29.1529H61.6868V0.00413004H57.484ZM65.7541 0.00413004V31.9999L78.3189 32C82.2949 32.0008 86.1022 32.0015 89.6154 29.8218C92.8273 27.829 95.1611 24.4637 95.8783 20.7472C96.1395 19.3943 96.1324 18.0382 96.1253 16.671C96.1242 16.4483 96.123 16.2253 96.123 16.002C96.123 15.7368 96.125 15.4715 96.1271 15.2064C96.1376 13.8375 96.1481 12.472 95.8779 11.1213C95.064 7.05256 92.3555 3.43812 88.6664 1.53044C85.666 -0.0210143 82.5976 -0.00980222 79.354 0.00205044C79.0701 0.00308779 78.7848 0.00413004 78.4982 0.00413004H65.7541ZM69.9569 4.20696V27.6615H79.3116C79.5291 27.6615 79.7451 27.6624 79.9599 27.6633C82.2921 27.6727 84.4711 27.6815 86.6327 26.5621C89.1066 25.2811 90.9758 22.9268 91.617 20.2049C91.9264 18.8911 91.9235 17.5864 91.9207 16.2527C91.9204 16.1243 91.9201 15.9955 91.9201 15.8664C91.9201 11.7879 91.0307 8.01988 87.3105 5.70724C84.8827 4.19788 82.3479 4.20202 79.6228 4.20647C79.4744 4.20672 79.3255 4.20696 79.176 4.20696H69.9569ZM74.0241 23.7298V8.27422H80.2606C80.5421 8.27422 80.8307 8.26511 81.1222 8.25591C81.9722 8.22907 82.8478 8.20142 83.65 8.39624C86.2875 9.0367 87.9664 11.4546 87.9884 14.104H85.2769C85.1806 14.104 85.0746 14.1097 84.9641 14.1157C84.6276 14.1338 84.2494 14.1543 83.9778 14.0222C83.6841 13.8793 83.5072 13.6214 83.3263 13.3577C83.1061 13.0366 82.88 12.707 82.4298 12.5656C81.5649 12.2939 80.4608 12.3622 79.4365 12.4255C79.012 12.4517 78.6013 12.4771 78.227 12.4771V19.527C78.5617 19.527 78.9289 19.5474 79.3105 19.5687C81.1395 19.6706 83.2984 19.7909 83.7856 17.7645H87.9884C87.9865 18.4591 87.9263 19.1344 87.705 19.7981C87.062 21.7264 85.4068 23.3013 83.3788 23.6668C82.546 23.817 81.6473 23.7854 80.7704 23.7547C80.4141 23.7422 80.0615 23.7298 79.7183 23.7298H74.0241Z" fill="#205959"/>
</svg>
