<svg width="19" height="20" viewBox="0 0 19 20" fill="none" xmlns="http://www.w3.org/2000/svg">
<path fill-rule="evenodd" clip-rule="evenodd" d="M0 0.00258127V20L7.85302 20C10.338 20.0005 12.7176 20.0009 14.9133 18.6386C16.9207 17.3931 18.3794 15.2898 18.8276 12.967C18.9908 12.1214 18.9864 11.2739 18.982 10.4194C18.9813 10.2802 18.9806 10.1408 18.9806 10.0013C18.9806 9.83547 18.9818 9.6697 18.9831 9.50401C18.9897 8.64845 18.9962 7.795 18.8274 6.95082C18.3187 4.40785 16.6259 2.14883 14.3202 0.956524C12.445 -0.013134 10.5272 -0.00612639 8.49991 0.00128152C8.32248 0.00192987 8.14421 0.00258127 7.96506 0.00258127H0ZM2.62674 2.62935V17.2884H8.47343C8.60935 17.2884 8.74439 17.289 8.87862 17.2895C10.3362 17.2954 11.6981 17.301 13.0491 16.6013C14.5953 15.8007 15.7636 14.3293 16.1643 12.628C16.3577 11.8069 16.3559 10.9915 16.3541 10.158C16.3539 10.0777 16.3538 9.99716 16.3538 9.91653C16.3538 7.36746 15.7979 5.01243 13.4728 3.56702C11.9553 2.62368 10.3711 2.62626 8.66792 2.62905C8.5752 2.6292 8.48213 2.62935 8.3887 2.62935H2.62674ZM5.16878 14.8311V5.17139H9.06657C9.24251 5.17139 9.42286 5.1657 9.60509 5.15994C10.1363 5.14317 10.6836 5.12589 11.1849 5.24765C12.8334 5.64794 13.8827 7.1591 13.8964 8.81498H12.2018C12.1416 8.81498 12.0753 8.81856 12.0062 8.82229C11.7959 8.83365 11.5596 8.84642 11.3898 8.76389C11.2063 8.67455 11.0957 8.51338 10.9827 8.34857C10.845 8.14791 10.7037 7.94185 10.4223 7.8535C9.88176 7.68371 9.19166 7.72635 8.55147 7.76591C8.2862 7.7823 8.02949 7.79817 7.79555 7.79817V12.2044C8.00472 12.2044 8.23424 12.2172 8.47272 12.2304C9.61584 12.2941 10.9652 12.3693 11.2697 11.1028H13.8964C13.8953 11.5369 13.8576 11.959 13.7193 12.3738C13.3175 13.579 12.2829 14.5633 11.0155 14.7917C10.495 14.8856 9.93322 14.8659 9.3852 14.8467C9.16252 14.8389 8.9421 14.8311 8.72763 14.8311H5.16878Z" fill="#205959"/>
</svg>
