<svg width="24" height="24" viewBox="0 0 24 24" fill="none" xmlns="http://www.w3.org/2000/svg">
<path d="M12 0C8.97892 0.00411828 6.07024 1.14605 3.85328 3.19837C1.63632 5.25069 0.27376 8.06278 0.0369845 11.0746C-0.199791 14.0864 0.706591 17.0768 2.57561 19.4504C4.44463 21.8239 7.13912 23.4063 10.1224 23.8825V15.4861H7.07329V12.0164H10.1224V9.36525C10.1224 6.36116 11.9174 4.69389 14.6286 4.69389C15.5293 4.7063 16.4278 4.78411 17.3172 4.92671V7.88574H15.8152C15.5567 7.85077 15.2937 7.87454 15.0456 7.95529C14.7976 8.03603 14.571 8.17166 14.3826 8.35209C14.1942 8.53252 14.049 8.75311 13.9576 8.99743C13.8663 9.24176 13.8312 9.50354 13.855 9.76329V12.0164H17.1896L16.6563 15.4861H13.8776V23.8825C16.8609 23.4063 19.5554 21.8239 21.4244 19.4504C23.2934 17.0768 24.1998 14.0864 23.963 11.0746C23.7262 8.06278 22.3637 5.25069 20.1467 3.19837C17.9298 1.14605 15.0211 0.00411828 12 0Z" fill="#FFF7F1"/>
</svg>
