<svg width="24" height="24" viewBox="0 0 24 24" fill="none" xmlns="http://www.w3.org/2000/svg">
<path fill-rule="evenodd" clip-rule="evenodd" d="M11.9887 2.65561e-05C9.14219 -0.000606754 6.38834 1.01185 4.22011 2.85616C2.05187 4.70048 0.610788 7.25626 0.154807 10.066C-0.301173 12.8758 0.257715 15.7562 1.73143 18.1915C3.20515 20.6269 5.49749 22.4582 8.19814 23.3578C8.79744 23.4627 9.01469 23.0956 9.01469 22.781C9.01469 22.4663 9.01469 21.7397 9.01469 20.7359C5.68108 21.485 4.9769 19.1327 4.9769 19.1327C4.75624 18.4057 4.27994 17.783 3.63596 17.3798C2.54223 16.6306 3.71836 16.6306 3.71836 16.6306C4.09824 16.6832 4.46107 16.8219 4.77916 17.0362C5.09724 17.2504 5.36217 17.5345 5.55372 17.8667C5.71631 18.1616 5.93558 18.4214 6.19893 18.6312C6.46228 18.841 6.76451 18.9967 7.08825 19.0893C7.41198 19.1819 7.75082 19.2096 8.08529 19.1707C8.41976 19.1319 8.74325 19.0273 9.03716 18.863C9.08855 18.2567 9.35411 17.6884 9.78629 17.2599C7.12689 16.9528 4.32516 15.9265 4.32516 11.3343C4.30789 10.1439 4.75066 8.99264 5.56121 8.12056C5.19565 7.08391 5.24395 5.94621 5.69606 4.94426C5.69606 4.94426 6.69989 4.64461 8.99222 6.19531C10.9537 5.65724 13.0238 5.65724 14.9852 6.19531C17.2776 4.64461 18.2814 4.94426 18.2814 4.94426C18.7248 5.94903 18.7677 7.08523 18.4013 8.12056C19.2145 8.99095 19.6577 10.1433 19.6373 11.3343C19.6373 15.9414 16.8356 16.9528 14.1612 17.2449C14.4517 17.5382 14.6752 17.891 14.8162 18.279C14.9571 18.667 15.0123 19.0809 14.9777 19.4923C14.9777 21.0954 14.9777 22.3839 14.9777 22.781C14.9777 23.178 15.195 23.4702 15.8018 23.3578C18.5043 22.4576 20.7979 20.6244 22.2715 18.1867C23.745 15.749 24.3023 12.8662 23.8434 10.0549C23.3845 7.24366 21.9393 4.68772 19.767 2.8452C17.5947 1.00268 14.8372 -0.0059668 11.9887 2.65561e-05Z" fill="#FFF7F1"/>
</svg>
