<svg width="12" height="13" viewBox="0 0 12 13" fill="none" xmlns="http://www.w3.org/2000/svg">
<path fill-rule="evenodd" clip-rule="evenodd" d="M5.99436 0.500013C4.57109 0.499697 3.19417 1.00592 2.11005 1.92808C1.02593 2.85024 0.305394 4.12813 0.0774037 5.53302C-0.150586 6.93791 0.128857 8.37808 0.865716 9.59575C1.60258 10.8134 2.74875 11.7291 4.09907 12.1789C4.39872 12.2313 4.50734 12.0478 4.50734 11.8905C4.50734 11.7332 4.50734 11.3698 4.50734 10.8679C2.84054 11.2425 2.48845 10.0664 2.48845 10.0664C2.37812 9.70283 2.13997 9.3915 1.81798 9.18988C1.27112 8.81532 1.85918 8.81532 1.85918 8.81532C2.04912 8.84162 2.23053 8.91097 2.38958 9.01809C2.54862 9.1252 2.68109 9.26723 2.77686 9.43335C2.85815 9.58078 2.96779 9.71069 3.09946 9.81559C3.23114 9.9205 3.38226 9.99834 3.54412 10.0446C3.70599 10.0909 3.87541 10.1048 4.04265 10.0854C4.20988 10.066 4.37163 10.0137 4.51858 9.93152C4.54428 9.62833 4.67705 9.34418 4.89315 9.12995C3.56345 8.97638 2.16258 8.46323 2.16258 6.16716C2.15394 5.57193 2.37533 4.99632 2.78061 4.56028C2.59783 4.04195 2.62198 3.4731 2.84803 2.97213C2.84803 2.97213 3.34994 2.82231 4.49611 3.59765C5.47683 3.32862 6.5119 3.32862 7.49262 3.59765C8.63878 2.82231 9.14069 2.97213 9.14069 2.97213C9.3624 3.47452 9.38384 4.04262 9.20063 4.56028C9.60725 4.99548 9.82885 5.57165 9.81865 6.16716C9.81865 8.47072 8.41779 8.97638 7.0806 9.12246C7.22586 9.2691 7.33759 9.4455 7.40808 9.63949C7.47856 9.83349 7.50613 10.0405 7.48887 10.2462C7.48887 11.0477 7.48887 11.692 7.48887 11.8905C7.48887 12.089 7.59749 12.2351 7.90089 12.1789C9.25214 11.7288 10.3989 10.8122 11.1357 9.59335C11.8725 8.37451 12.1512 6.9331 11.9217 5.52746C11.6922 4.12183 10.9697 2.84386 9.88351 1.9226C8.79735 1.00134 7.4186 0.497017 5.99436 0.500013Z" fill="#383838"/>
</svg>
