<svg width="53" height="32" viewBox="0 0 53 32" fill="none" xmlns="http://www.w3.org/2000/svg">
<path d="M19.8148 21.419C20.4982 21.419 20.9101 21.1101 21.2845 20.7731V19.6684C20.311 19.6778 19.0192 19.6778 19.0192 20.6513C19.0192 21.1475 19.2906 21.419 19.8148 21.419ZM21.2845 18.9944V18.5545C21.2845 18.1332 21.0318 17.768 20.2547 17.768C19.4029 17.768 18.888 18.1613 18.7944 18.1613C18.6634 18.1613 18.4668 17.7962 18.4668 17.6932C18.4668 17.4497 19.2906 17.0941 20.2267 17.0941C21.3875 17.0941 22.0709 17.637 22.0709 18.5638V20.6608C22.0709 21.4284 22.1832 21.7935 22.1832 21.8402C22.1832 22.0181 21.7994 22.0556 21.6777 22.0556C21.453 22.0556 21.4063 21.6624 21.35 21.4003C20.9943 21.7935 20.4795 22.1024 19.7773 22.1024C18.8693 22.1024 18.1765 21.6624 18.1765 20.6982C18.1765 19.1161 19.8522 19.0132 21.2845 18.9944Z" fill="#A4050E"/>
<path d="M23.6621 18.5731C23.6621 17.8055 23.5496 17.4405 23.5496 17.3937C23.5496 17.2157 23.9335 17.1784 24.0552 17.1784C24.2799 17.1784 24.3268 17.5528 24.3828 17.7962C24.7012 17.3469 25.0755 17.0941 25.4687 17.0941C25.8339 17.0941 26.0117 17.2533 26.0117 17.4591C26.0117 17.637 25.9368 17.9647 25.8245 17.9647C25.7028 17.9647 25.6278 17.8617 25.3096 17.8617C24.8229 17.8617 24.4484 18.4327 24.4484 18.4327V21.859C24.4484 21.9901 24.336 22.0649 24.074 22.0649H24.0365C23.7744 22.0649 23.6621 21.9901 23.6621 21.859V18.5731Z" fill="#A4050E"/>
<path d="M28.9697 21.4097H29.0259C29.8309 21.391 30.2522 20.7824 30.2522 19.6684C30.2522 18.4609 29.8403 17.7774 29.1008 17.7774C28.6889 17.7774 28.2209 18.0022 27.837 18.4233V20.9884C28.174 21.2692 28.5672 21.4097 28.9697 21.4097ZM27.837 23.7874C27.837 23.9184 27.7247 23.9934 27.4625 23.9934H27.4251C27.163 23.9934 27.0507 23.9184 27.0507 23.7874V18.5731C27.0507 17.8056 26.9384 17.4404 26.9384 17.3936C26.9384 17.2158 27.3222 17.1784 27.4438 17.1784C27.6686 17.1784 27.7153 17.5528 27.7715 17.7962C28.2302 17.3188 28.7264 17.0941 29.2599 17.0941C30.3833 17.0941 31.076 18.1425 31.076 19.5655V19.6498C31.076 21.2224 30.2897 22.1024 29.1757 22.1024C28.5952 22.1024 28.2021 21.9058 27.837 21.625V23.7874Z" fill="#A4050E"/>
<path d="M35.4006 19.2472C35.4006 18.2643 35.0262 17.768 34.2772 17.768C33.4629 17.768 33.0323 18.2643 32.9668 19.2472H35.4006ZM34.3054 17.0941C35.5879 17.0941 36.2338 17.946 36.2338 19.5373C36.2338 19.6497 36.0372 19.9211 35.9249 19.9211H32.9668C33.0417 20.9603 33.4816 21.4284 34.4085 21.4284C35.2228 21.4284 35.6815 21.0352 35.7751 21.0352C35.9062 21.0352 36.1028 21.4003 36.1028 21.5033C36.1028 21.728 35.3633 22.1024 34.4177 22.1024C32.8638 22.1024 32.1242 21.3067 32.1242 19.631C32.1242 17.9741 32.8731 17.0941 34.3054 17.0941Z" fill="#A4050E"/>
<path d="M37.4598 18.5731C37.4598 17.8055 37.3474 17.4405 37.3474 17.3937C37.3474 17.2157 37.7313 17.1784 37.8529 17.1784C38.0777 17.1784 38.1245 17.5528 38.1806 17.7962C38.5738 17.3562 39.1167 17.0941 39.641 17.0941C40.5958 17.0941 41.1669 17.6651 41.1669 18.6107V21.859C41.1669 21.9901 41.0545 22.0649 40.7924 22.0649H40.755C40.4929 22.0649 40.3805 21.9901 40.3805 21.859V18.6855C40.3805 18.1144 40.0342 17.7775 39.4256 17.7775C39.0045 17.7775 38.5551 18.0302 38.2461 18.4327V21.859C38.2461 21.9901 38.1338 22.0649 37.8717 22.0649H37.8343C37.5722 22.0649 37.4598 21.9901 37.4598 21.859V18.5731Z" fill="#A4050E"/>
<path d="M42.8703 17.8243H42.4022C42.2712 17.8243 42.2151 17.7401 42.2151 17.5434V17.4311C42.2151 17.2345 42.2712 17.1503 42.4022 17.1503H42.8703L42.9827 16.1673C42.992 16.0363 43.0857 15.9614 43.2822 15.9614H43.3758C43.5725 15.9614 43.6567 16.0363 43.6567 16.1673V17.1503H44.443C44.5741 17.1503 44.6303 17.2345 44.6303 17.4311V17.5434C44.6303 17.7401 44.5741 17.8243 44.443 17.8243H43.6567V20.7356C43.6567 21.2973 43.8908 21.4284 44.1621 21.4284C44.4337 21.4284 44.4804 21.3815 44.5647 21.3815C44.6958 21.3815 44.7613 21.7467 44.7613 21.8215C44.7613 22.0743 44.3306 22.1024 44.0779 22.1024C43.6099 22.1024 42.8703 21.8964 42.8703 20.8105V17.8243Z" fill="#A4050E"/>
<path d="M45.9125 18.5731C45.9125 17.8055 45.8002 17.4405 45.8002 17.3937C45.8002 17.2157 46.1841 17.1784 46.3057 17.1784C46.5304 17.1784 46.5772 17.5528 46.6333 17.7962C46.9517 17.3469 47.3261 17.0941 47.7193 17.0941C48.0844 17.0941 48.2623 17.2533 48.2623 17.4591C48.2623 17.637 48.1874 17.9647 48.075 17.9647C47.9534 17.9647 47.8784 17.8617 47.5601 17.8617C47.0734 17.8617 46.6988 18.4327 46.6988 18.4327V21.859C46.6988 21.9901 46.5866 22.0649 46.3245 22.0649H46.287C46.0249 22.0649 45.9125 21.9901 45.9125 21.859V18.5731Z" fill="#A4050E"/>
<path d="M48.6926 17.4124C48.6834 17.3842 48.6646 17.3282 48.6646 17.2906C48.6646 17.197 48.7862 17.1315 49.0672 17.1315H49.142C49.3292 17.1315 49.4697 17.169 49.5165 17.2814L50.7896 20.6607L52.0346 17.2814C52.0722 17.169 52.2218 17.1315 52.4185 17.1315C52.6993 17.1315 52.8211 17.1877 52.8211 17.2906C52.8211 17.3282 52.8117 17.3655 52.7929 17.4218L50.387 23.7968C50.331 23.9372 50.1718 23.9934 49.9472 23.9934H49.8067C49.6007 23.9934 49.4978 23.9372 49.4978 23.8436C49.4978 23.7874 49.5165 23.7687 50.331 21.7841L48.6926 17.4124Z" fill="#A4050E"/>
<path d="M8.31345 5.046C8.31345 4.91503 8.42587 4.84014 8.68805 4.84014H8.72541C8.98752 4.84014 9.09985 4.91503 9.09985 5.046V9.56754C9.09985 9.69859 8.98752 9.77348 8.72541 9.77348H8.68805C8.42587 9.77348 8.31345 9.69859 8.31345 9.56754V5.046ZM8.27609 3.47338V2.92108C8.27609 2.78995 8.38842 2.71506 8.65053 2.71506H8.76286C9.02496 2.71506 9.13729 2.78995 9.13729 2.92108V3.47338C9.13729 3.60435 9.02496 3.67923 8.76286 3.67923H8.65053C8.38842 3.67923 8.27609 3.60435 8.27609 3.47338Z" fill="#A4050E"/>
<path d="M12.7882 9.12756C13.5276 9.12756 13.9396 8.44422 13.9396 7.23667C13.9396 6.12264 13.5183 5.51402 12.7132 5.49538H12.657C12.2544 5.49538 11.8613 5.63588 11.5244 5.91662V8.48158C11.9082 8.9029 12.3762 9.12756 12.7882 9.12756ZM10.7379 2.92107C10.7379 2.79002 10.8503 2.71513 11.1124 2.71513H11.1499C11.412 2.71513 11.5244 2.79002 11.5244 2.92107V5.28C11.8894 4.99926 12.2826 4.8026 12.8631 4.8026C13.977 4.8026 14.7634 5.6826 14.7634 7.25531V7.33955C14.7634 8.76257 14.0706 9.81098 12.9473 9.81098C12.4136 9.81098 11.9175 9.58624 11.4588 9.10884C11.3932 9.43647 11.309 9.66121 11.309 9.66121C11.2715 9.74538 11.1874 9.77354 11.0562 9.77354H11.0189C10.8222 9.77354 10.7379 9.69865 10.7379 9.56752V2.92107Z" fill="#A4050E"/>
<path d="M16.111 6.28177C16.111 5.51401 15.9986 5.14902 15.9986 5.10222C15.9986 4.92436 16.3824 4.88684 16.5041 4.88684C16.7289 4.88684 16.7756 5.26135 16.8318 5.50473C17.1501 5.05541 17.5245 4.80259 17.9177 4.80259C18.2828 4.80259 18.4606 4.96172 18.4606 5.16774C18.4606 5.3456 18.3857 5.67315 18.2734 5.67315C18.1517 5.67315 18.0768 5.57034 17.7586 5.57034C17.2718 5.57034 16.8973 6.14127 16.8973 6.14127V9.56751C16.8973 9.69864 16.7849 9.77345 16.5228 9.77345H16.4855C16.2233 9.77345 16.111 9.69864 16.111 9.56751V6.28177Z" fill="#A4050E"/>
<path d="M20.7915 9.12756C21.4748 9.12756 21.8867 8.81865 22.2611 8.48158V7.377C21.2876 7.38636 19.9958 7.38636 19.9958 8.35997C19.9958 8.8561 20.2672 9.12756 20.7915 9.12756ZM22.2611 6.70302V6.26306C22.2611 5.84174 22.0084 5.47666 21.2314 5.47666C20.3795 5.47666 19.8646 5.8699 19.7711 5.8699C19.64 5.8699 19.4434 5.50475 19.4434 5.40186C19.4434 5.15839 20.2672 4.8026 21.2034 4.8026C22.3641 4.8026 23.0475 5.34561 23.0475 6.27242V8.36933C23.0475 9.13692 23.1599 9.50208 23.1599 9.54888C23.1599 9.72666 22.7761 9.7641 22.6544 9.7641C22.4296 9.7641 22.3829 9.37094 22.3267 9.10884C21.9709 9.50208 21.4561 9.81098 20.754 9.81098C19.8459 9.81098 19.1532 9.37094 19.1532 8.40677C19.1532 6.82471 20.8288 6.72166 22.2611 6.70302Z" fill="#A4050E"/>
<path d="M24.6387 6.28177C24.6387 5.51401 24.5263 5.14902 24.5263 5.10222C24.5263 4.92436 24.9101 4.88684 25.0318 4.88684C25.2565 4.88684 25.3034 5.26135 25.3595 5.50473C25.6778 5.05541 26.0522 4.80259 26.4453 4.80259C26.8106 4.80259 26.9883 4.96172 26.9883 5.16774C26.9883 5.3456 26.9135 5.67315 26.8011 5.67315C26.6794 5.67315 26.6045 5.57034 26.2862 5.57034C25.7995 5.57034 25.425 6.14127 25.425 6.14127V9.56751C25.425 9.69864 25.3127 9.77345 25.0506 9.77345H25.0131C24.751 9.77345 24.6387 9.69864 24.6387 9.56751V6.28177Z" fill="#A4050E"/>
<path d="M27.4188 5.12088C27.4094 5.0928 27.3907 5.03663 27.3907 4.99927C27.3907 4.90558 27.5124 4.84014 27.7932 4.84014H27.8682C28.0553 4.84014 28.1957 4.8775 28.2426 4.98991L29.5158 8.36926L30.7608 4.98991C30.7983 4.8775 30.948 4.84014 31.1446 4.84014C31.4255 4.84014 31.5471 4.89622 31.5471 4.99927C31.5471 5.03663 31.5378 5.07416 31.5191 5.13024L29.1132 11.5053C29.057 11.6457 28.8979 11.702 28.6731 11.702H28.5328C28.3269 11.702 28.2239 11.6457 28.2239 11.5522C28.2239 11.496 28.2426 11.4773 29.057 9.49265L27.4188 5.12088Z" fill="#A4050E"/>
<path d="M16.0029 16.6444H12.1958V18.5836L13.8405 18.5241C13.8405 18.5241 15.3254 18.7328 16.0029 16.6444Z" fill="#A4050E"/>
<path d="M9.33865 16.6444H5.86065V18.7584C6.64159 19.0416 6.94659 19.6216 7.9438 19.6216C8.71831 19.6216 9.03845 19.4172 9.33865 19.1919V16.6444Z" fill="#A4050E"/>
<path d="M11.2561 23.503C11.2561 23.8573 11.0316 24.1446 10.7551 24.1446C10.4783 24.1446 10.2539 23.8573 10.2539 23.503V16.2757C10.2539 15.921 10.4783 15.6339 10.7551 15.6339C11.0316 15.6339 11.2561 15.921 11.2561 16.2757V23.503ZM19.1742 14.1221H18.9784V13.6416C18.9884 13.6214 18.9946 13.5986 18.9946 13.5742V11.5687C18.9946 11.4873 18.9311 11.4213 18.8527 11.4213H12.9393C12.8987 11.4169 12.8587 11.428 12.8301 11.4565L9.61734 14.6329C9.586 14.6639 9.57534 14.7083 9.58283 14.7528V24.7164C9.58283 24.7804 9.61278 24.8345 9.65438 24.8552L12.7353 27.8972C12.7449 27.9068 12.7562 27.9135 12.768 27.919C12.7884 27.9305 12.8114 27.9377 12.8364 27.9377H17.286V28.0992C17.286 28.1814 17.351 28.248 17.4311 28.248H18.8043C18.8846 28.248 18.9495 28.1814 18.9495 28.0992V25.4271C18.9495 25.3448 18.8846 25.2783 18.8043 25.2783H17.4311C17.351 25.2783 17.286 25.3448 17.286 25.4271V25.6376H13.7442L11.9323 23.8484V15.5264L13.7577 13.7217H16.6618V14.1221H16.4495C16.3649 14.1221 16.2964 14.1855 16.2964 14.2641V14.6948C16.2964 14.7733 16.3649 14.8367 16.4495 14.8367H19.1742C19.2587 14.8367 19.3275 14.7733 19.3275 14.6948V14.2641C19.3275 14.1855 19.2587 14.1221 19.1742 14.1221Z" fill="#A4050E"/>
<path d="M4.79844 17.7076C4.79844 17.9532 4.61407 18.1523 4.38673 18.1523C4.15938 18.1523 3.97517 17.9532 3.97517 17.7076C3.97517 17.4621 4.15938 17.2631 4.38673 17.2631C4.61407 17.2631 4.79844 17.4621 4.79844 17.7076ZM5.62285 0.689447V0H3.15069V19.8188H5.62285V14.5954H4.99331V14.1333H5.62285V12.675H4.59063V12.2127H5.62285V10.7545H4.99331V10.2921H5.62285V8.83388H4.59063V8.37162H5.62285V6.91344H4.99331V6.45109H5.62285V4.99292H4.59063V4.53057H5.62285V3.0724H4.99331V2.60997H5.62285V1.15163H4.59063V0.689447H5.62285Z" fill="#A4050E"/>
<path d="M2.94631 16.6444H0C0.776707 18.8097 2.22829 18.5241 2.22829 18.5241L2.94631 18.5514V16.6444Z" fill="#A4050E"/>
<path d="M21.1481 30.5398H19.7904C19.7125 30.5398 19.6495 30.6025 19.6495 30.6803V30.7636H18.701V30.3331C18.701 30.2464 18.6311 30.1763 18.5449 30.1763H18.432V28.484H17.75V30.1763H17.6372C17.5509 30.1763 17.4811 30.2464 17.4811 30.3331V30.7636H14.4674L14.4682 30.7062C14.4682 30.65 14.415 30.5352 14.3644 30.5352H14.2835V30.5337L13.7615 30.5338V31.6593L14.058 31.6592C14.0673 31.6627 14.0768 31.6657 14.0871 31.6657H14.3644C14.415 31.6657 14.4558 31.6201 14.4558 31.5639L14.4586 31.3716H17.4811V31.8432C17.4811 31.9298 17.5509 32 17.6372 32H18.5449C18.6311 32 18.701 31.9298 18.701 31.8432V31.3716H19.6495V31.4961C19.6495 31.5737 19.7125 31.6366 19.7904 31.6366H21.1481C21.2259 31.6366 21.289 31.5737 21.289 31.4961V30.6803C21.289 30.6025 21.2259 30.5398 21.1481 30.5398Z" fill="#A4050E"/>
<path d="M17.4416 23.2314H17.7671V24.9787H18.4931V23.2314H18.8186C18.9019 23.2314 18.9696 23.1678 18.9696 23.0894V22.6586C18.9696 22.6514 18.9684 22.6444 18.9674 22.6376V22.4509H17.2928V22.6376C17.2917 22.6444 17.2906 22.6514 17.2906 22.6586V23.0894C17.2906 23.1678 17.3582 23.2314 17.4416 23.2314Z" fill="#A4050E"/>
</svg>
