<svg width="24" height="24" viewBox="0 0 24 24" fill="none" xmlns="http://www.w3.org/2000/svg">
<path d="M18.9975 0H5.0025C3.67575 0 2.40335 0.527048 1.4652 1.4652C0.527048 2.40335 0 3.67575 0 5.0025L0 18.9975C0 19.6544 0.129393 20.3049 0.380793 20.9119C0.632192 21.5188 1.00067 22.0703 1.4652 22.5348C2.40335 23.473 3.67575 24 5.0025 24H18.9975C19.6544 24 20.3049 23.8706 20.9119 23.6192C21.5188 23.3678 22.0703 22.9993 22.5348 22.5348C22.9993 22.0703 23.3678 21.5188 23.6192 20.9119C23.8706 20.3049 24 19.6544 24 18.9975V5.0025C24 4.34556 23.8706 3.69506 23.6192 3.08813C23.3678 2.48119 22.9993 1.92972 22.5348 1.4652C22.0703 1.00067 21.5188 0.632192 20.9119 0.380793C20.3049 0.129393 19.6544 0 18.9975 0V0ZM8.0025 18.9975H5.0025V8.0025H8.0025V18.9975ZM6.5025 6.75C6.15214 6.75444 5.80835 6.6548 5.51467 6.46369C5.221 6.27259 4.99064 5.99862 4.8528 5.67649C4.71495 5.35436 4.67581 4.99857 4.74034 4.65418C4.80487 4.30978 4.97016 3.99229 5.21527 3.74192C5.46039 3.49154 5.7743 3.31955 6.11724 3.24773C6.46018 3.1759 6.81673 3.20748 7.14171 3.33846C7.46669 3.46944 7.74549 3.69392 7.94279 3.98348C8.14008 4.27303 8.247 4.61463 8.25 4.965C8.25297 5.19708 8.21007 5.42747 8.12377 5.64293C8.03746 5.85839 7.90945 6.05468 7.74708 6.22054C7.58471 6.38639 7.39118 6.51854 7.1776 6.6094C6.96402 6.70026 6.7346 6.74804 6.5025 6.75ZM20.0025 19.0125H17.0025V13.395C17.0025 10.0275 12.9975 10.2825 12.9975 13.395V18.9975H9.9975V8.0025H12.9975V9.75C14.3925 7.1625 20.0025 6.975 20.0025 12.225V19.0125Z" fill="#FFF7F1"/>
</svg>
