<svg width="12" height="13" viewBox="0 0 12 13" fill="none" xmlns="http://www.w3.org/2000/svg">
<path d="M8.5 1.91421C8.63132 1.78289 8.78722 1.67872 8.9588 1.60765C9.13038 1.53658 9.31428 1.5 9.5 1.5C9.68572 1.5 9.86962 1.53658 10.0412 1.60765C10.2128 1.67872 10.3687 1.78289 10.5 1.91421C10.6313 2.04554 10.7355 2.20144 10.8066 2.37302C10.8776 2.5446 10.9142 2.7285 10.9142 2.91421C10.9142 3.09993 10.8776 3.28383 10.8066 3.45541C10.7355 3.62699 10.6313 3.78289 10.5 3.91421L3.75 10.6642L1 11.4142L1.75 8.66421L8.5 1.91421Z" stroke="#383838" stroke-width="2" stroke-linecap="round" stroke-linejoin="round"/>
</svg>
