<svg width="24" height="24" viewBox="0 0 24 24" fill="none" xmlns="http://www.w3.org/2000/svg">
<path d="M2.52 12.645H5.04V15.165C5.04 15.6634 4.89221 16.1506 4.6153 16.565C4.3384 16.9794 3.94483 17.3024 3.48436 17.4932C3.02389 17.6839 2.51721 17.7338 2.02837 17.6366C1.53954 17.5393 1.09052 17.2993 0.738092 16.9469C0.385664 16.5945 0.145657 16.1455 0.0484222 15.6566C-0.0488125 15.1678 0.00109188 14.6611 0.191825 14.2006C0.382558 13.7402 0.705552 13.3466 1.11996 13.0697C1.53438 12.7928 2.02159 12.645 2.52 12.645ZM8.835 12.645C8.16726 12.647 7.52744 12.9131 7.05528 13.3853C6.58311 13.8574 6.31698 14.4973 6.315 15.165V21.48C6.315 22.1483 6.5805 22.7893 7.05309 23.2619C7.52568 23.7345 8.16666 24 8.835 24C9.50335 24 10.1443 23.7345 10.6169 23.2619C11.0895 22.7893 11.355 22.1483 11.355 21.48V15.165C11.353 14.4973 11.0869 13.8574 10.6147 13.3853C10.1426 12.9131 9.50274 12.647 8.835 12.645ZM8.835 0C8.16666 0 7.52568 0.265499 7.05309 0.738091C6.5805 1.21068 6.315 1.85165 6.315 2.52C6.315 3.18835 6.5805 3.82932 7.05309 4.30191C7.52568 4.7745 8.16666 5.04 8.835 5.04H11.355V2.52C11.353 1.85226 11.0869 1.21244 10.6147 0.740277C10.1426 0.268113 9.50274 0.00197849 8.835 0V0ZM8.835 6.315H2.52C1.85166 6.315 1.21068 6.5805 0.738092 7.05309C0.2655 7.52568 1.13549e-06 8.16665 1.13549e-06 8.835C1.13549e-06 9.50335 0.2655 10.1443 0.738092 10.6169C1.21068 11.0895 1.85166 11.355 2.52 11.355H8.835C9.50335 11.355 10.1443 11.0895 10.6169 10.6169C11.0895 10.1443 11.355 9.50335 11.355 8.835C11.355 8.16665 11.0895 7.52568 10.6169 7.05309C10.1443 6.5805 9.50335 6.315 8.835 6.315ZM24 8.835C24 8.16665 23.7345 7.52568 23.2619 7.05309C22.7893 6.5805 22.1483 6.315 21.48 6.315C20.8117 6.315 20.1707 6.5805 19.6981 7.05309C19.2255 7.52568 18.96 8.16665 18.96 8.835V11.355H21.48C22.1477 11.353 22.7876 11.0869 23.2597 10.6147C23.7319 10.1426 23.998 9.50274 24 8.835ZM15.165 11.355C15.8327 11.353 16.4726 11.0869 16.9447 10.6147C17.4169 10.1426 17.683 9.50274 17.685 8.835V2.52C17.685 1.85165 17.4195 1.21068 16.9469 0.738091C16.4743 0.265499 15.8333 0 15.165 0C14.4967 0 13.8557 0.265499 13.3831 0.738091C12.9105 1.21068 12.645 1.85165 12.645 2.52V8.835C12.647 9.50274 12.9131 10.1426 13.3853 10.6147C13.8574 11.0869 14.4973 11.353 15.165 11.355ZM15.165 18.96H12.645V21.48C12.645 21.9784 12.7928 22.4656 13.0697 22.88C13.3466 23.2944 13.7402 23.6174 14.2006 23.8082C14.6611 23.9989 15.1678 24.0488 15.6566 23.9516C16.1455 23.8543 16.5945 23.6143 16.9469 23.2619C17.2993 22.9095 17.5393 22.4605 17.6366 21.9716C17.7338 21.4828 17.6839 20.9761 17.4932 20.5156C17.3024 20.0552 16.9795 19.6616 16.565 19.3847C16.1506 19.1078 15.6634 18.96 15.165 18.96ZM21.48 12.645H15.165C14.4967 12.645 13.8557 12.9105 13.3831 13.3831C12.9105 13.8557 12.645 14.4967 12.645 15.165C12.645 15.8333 12.9105 16.4743 13.3831 16.9469C13.8557 17.4195 14.4967 17.685 15.165 17.685H21.48C22.1483 17.685 22.7893 17.4195 23.2619 16.9469C23.7345 16.4743 24 15.8333 24 15.165C24 14.4967 23.7345 13.8557 23.2619 13.3831C22.7893 12.9105 22.1483 12.645 21.48 12.645Z" fill="#FFF7F1"/>
</svg>
