<svg width="19" height="22" viewBox="0 0 19 22" fill="none" xmlns="http://www.w3.org/2000/svg">
<path fill-rule="evenodd" clip-rule="evenodd" d="M6.56436 0C6.56436 0 6.35337 0.618922 6.56436 0.817863C6.75192 1.0168 7.76002 1.08312 7.76002 1.08312V12.8869L9.75277 14.2353L11.4407 12.7322V1.19364L11.9565 1.08312C12.7536 1.28206 12.9412 0.618924 12.9412 0.618924V0H6.56436ZM10.7374 12.5996L10.1748 12.8206V1.25996L10.7374 1.08312V12.5996ZM12.2379 0.574716C11.6517 0.618925 7.85379 0.198939 7.85379 0.198939H12.2379C12.2379 0.198939 12.8474 0.552612 12.2379 0.574716Z" fill="#201434"/>
<path fill-rule="evenodd" clip-rule="evenodd" d="M15.0453 5.71018L15.0001 5.68698C14.6839 5.36211 14.2547 5.17647 13.8028 5.17647C12.8314 5.17647 12.0634 5.98864 12.0634 6.96324C12.0634 7.42734 12.2215 7.86823 12.5604 8.21631L12.583 8.23951C12.6281 8.30913 12.6959 8.35554 12.7637 8.40195C13.961 9.49258 14.6613 11.0705 14.6613 12.6948C14.6613 15.8739 12.1537 18.4264 9.05882 18.4264C5.9865 18.4264 3.47895 15.8739 3.47895 12.6948C3.47895 11.0937 4.13407 9.53899 5.30878 8.47156C5.80578 8.12349 6.07687 7.56657 6.07687 6.96324C6.07687 5.98864 5.30879 5.17647 4.33739 5.17647C3.88558 5.17647 3.45636 5.36211 3.1175 5.68698L3.09491 5.73339L3.07232 5.71018C1.10694 7.47375 0 10.0263 0 12.6948C0 17.8231 4.0663 22 9.05882 22C14.0513 22 18.1176 17.8231 18.1176 12.6948C18.1176 10.0263 17.0107 7.47375 15.0453 5.71018Z" fill="#201434"/>
</svg>
