<svg width="24" height="20" viewBox="0 0 24 20" fill="none" xmlns="http://www.w3.org/2000/svg">
<path d="M24 2.55952C23.1006 2.95029 22.1474 3.20314 21.1725 3.30952C22.2012 2.69479 22.9714 1.72727 23.34 0.58702C22.3871 1.16741 21.3421 1.58085 20.25 1.80952C19.5078 1.01687 18.5245 0.491596 17.453 0.315344C16.3815 0.139093 15.2817 0.321733 14.3247 0.83488C13.3677 1.34803 12.607 2.16294 12.1608 3.15296C11.7147 4.14298 11.608 5.25265 11.8575 6.30952C9.893 6.21501 7.9705 5.70726 6.21552 4.81943C4.46054 3.9316 2.91251 2.68364 1.6725 1.15702C1.04137 2.23784 0.845182 3.51833 1.12377 4.73853C1.40235 5.95874 2.13483 7.0272 3.1725 7.72702C2.38361 7.70831 1.61123 7.49719 0.9225 7.11202V7.17202C0.921097 8.30999 1.31421 9.41326 2.03489 10.2939C2.75557 11.1746 3.75925 11.7782 4.875 12.002C4.14121 12.2015 3.37142 12.2297 2.625 12.0845C2.93955 13.0639 3.55273 13.9203 4.37857 14.5337C5.2044 15.147 6.20148 15.4865 7.23 15.5045C5.48474 16.8756 3.3294 17.6204 1.11 17.6195C0.738912 17.6147 0.368361 17.5897 0 17.5445C2.25101 18.9898 4.86994 19.7578 7.545 19.757C16.605 19.757 21.555 12.257 21.555 5.74702C21.555 5.53702 21.555 5.31952 21.555 5.10952C22.5158 4.41237 23.3438 3.54873 24 2.55952Z" fill="#FFF7F1"/>
</svg>
