<svg width="24" height="18" viewBox="0 0 24 18" fill="none" xmlns="http://www.w3.org/2000/svg">
<path d="M23.5462 3.48977C23.4166 2.97808 23.1542 2.50966 22.7856 2.13184C22.417 1.75402 21.9552 1.48018 21.4469 1.33798C19.58 0.820651 12.075 0.753174 12.075 0.753174C12.075 0.753174 4.57745 0.685696 2.69557 1.17303C2.18485 1.30625 1.71834 1.5719 1.34315 1.94314C0.967963 2.31437 0.697396 2.77805 0.558781 3.28734C0.196081 5.20309 0.0103602 7.14814 0.00396419 9.09792C-0.0270106 11.047 0.12359 12.9948 0.453816 14.916C0.583418 15.4277 0.845777 15.8961 1.21438 16.2739C1.58299 16.6517 2.04479 16.9256 2.55312 17.0678C4.42 17.5851 11.925 17.6526 11.925 17.6526C11.925 17.6526 19.4225 17.7201 21.3044 17.2327C21.8151 17.0995 22.2817 16.8339 22.6568 16.4626C23.032 16.0914 23.3026 15.6277 23.4412 15.1184C23.8039 13.2027 23.9896 11.2576 23.996 9.30785C24.027 7.35873 23.8764 5.41096 23.5462 3.48977ZM9.51832 12.7492L9.5783 5.61157L15.8162 9.24037L9.51832 12.7492Z" fill="#FFF7F1"/>
</svg>
